<?xml version="1.0" encoding="UTF-8"?><svg id="_Слой_2" xmlns="http://www.w3.org/2000/svg" viewBox="0 0 450 548"><defs><style>.cls-1{fill:#bb9442;}</style></defs><path class="cls-1" d="M74.83,131c27.93-13.22,57.28-19.39,85.87-24.98v-19.1c-2.99.56-6,1.12-9.01,1.68-44.85,8.3-91.21,16.91-132.64,53.92-5.06,13.44-8.84,27.51-11.19,42.06,18.38-23.38,40.46-41.03,66.98-53.59Z"/><path class="cls-1" d="M78.11,161.81c25.45-16.3,54.02-23.98,82.59-29.82v-17.81c-55.58,10.89-112.27,24.11-154.86,86.65-.55,6.32-.84,12.71-.84,19.17,0,13.15,1.16,26.03,3.37,38.54,14.99-44.59,37.91-76.35,69.74-96.73Z"/><path class="cls-1" d="M160.7,78.79V9.56C100.92,27.8,51.96,70.81,25.75,126.63c39.8-30.2,82.77-38.17,124.48-45.89,3.5-.65,7-1.3,10.47-1.95Z"/><path class="cls-1" d="M207.05.73c-5.11.41-10.17.99-15.17,1.75v69.58c5.13-1.32,10.19-2.76,15.17-4.38V.73Z"/><path class="cls-1" d="M285.33,8.38c-7.81-2.22-15.79-4.01-23.93-5.36v34.22c8.59-7.86,16.6-17.34,23.93-28.86Z"/><path class="cls-1" d="M183.88,3.85c-5.12.97-10.18,2.11-15.17,3.43v69.96c5.1-1.01,10.17-2.08,15.17-3.23V3.85Z"/><path class="cls-1" d="M85.32,278.62c8.16-27.27,25.54-51.56,52.95-73.9,4.03-3.29,8.28-6.53,12.75-9.74,3.19-2.29,6.42-4.49,9.68-6.64v-19.62c-3.59,1.02-7.15,2.09-10.68,3.22-22.08,7.09-42.71,16.63-59.41,31.66-15.8,14.23-27.09,32.21-34.49,54.97-7.93,24.39-11.27,53.65-10.18,89.26,16.26,22.74,36.75,42.25,60.31,57.39-25.04-46.79-32.09-89.31-20.93-126.61Z"/><path class="cls-1" d="M253.4,87.87c-4.93,2.54-10,4.8-15.17,6.85v20.25c5.16-1.63,10.23-3.45,15.17-5.48v-21.62Z"/><path class="cls-1" d="M153.85,162.36c2.27-.68,4.56-1.33,6.85-1.96v-20.24c-27.29,5.66-54.43,13.12-78.27,28.39-33.3,21.32-56.42,56.01-70.62,105.93,5.56,21.84,14.4,42.37,25.95,61.05-.06-119.11,53.43-154.53,116.09-173.17Z"/><path class="cls-1" d="M321.85,45.58c2.89-5.86,5.56-12.19,8.01-19.03-4.52-2.45-9.14-4.75-13.84-6.89-3.95,8.87-8.31,16.79-13.02,23.89-11.84,17.84-25.94,30.5-41.6,39.87v22.53c24.24-11.54,45.23-29.48,60.45-60.37Z"/><path class="cls-1" d="M253.4,118.08c-4.97,1.93-10.04,3.66-15.17,5.22v18.43c5.12-1.39,10.18-2.87,15.17-4.47v-19.18Z"/><path class="cls-1" d="M348,47.98c.86-2.84,1.67-5.75,2.42-8.73-4.39-3.05-8.89-5.94-13.5-8.67-2.04,5.56-4.25,10.87-6.65,15.93-13.23,27.96-31.99,48.46-56.95,62.32-3.88,2.16-7.87,4.11-11.93,5.92v19.82c11.27-4.01,22.04-8.77,31.93-14.71,27.2-16.32,44.76-39.34,54.67-71.87Z"/><path class="cls-1" d="M293.82,42.8c5.59-7.83,10.52-16.58,14.86-26.31-5.05-2.08-10.2-3.98-15.44-5.68-7.93,12.86-16.62,23.35-25.92,31.99-1.95,1.81-3.92,3.53-5.92,5.18v25.94c12.76-8.31,23.45-18.55,32.43-31.12Z"/><path class="cls-1" d="M230.22,67.38c-4.96,2.28-10.03,4.31-15.17,6.12v20.53c5.16-1.47,10.22-3.09,15.17-4.89v-21.77Z"/><path class="cls-1" d="M207.05,76.15c-1.94.6-3.89,1.18-5.85,1.73-3.08.87-6.2,1.69-9.33,2.47v19.42c5.13-1.12,10.19-2.29,15.17-3.57v-20.05Z"/><path class="cls-1" d="M230.22,53.63V.07c-1.74-.04-3.48-.07-5.22-.07-3.34,0-6.65.09-9.95.23v64.66c5.16-1.93,10.22-4.08,15.17-6.51v-4.75Z"/><path class="cls-1" d="M253.4,43.98V1.82c-5.01-.65-10.07-1.11-15.17-1.41v53.72c4.61-2.64,9.1-5.58,13.47-8.85.57-.43,1.14-.86,1.7-1.3Z"/><path class="cls-1" d="M253.4,78.74v-24.64c-4.93,3.48-9.99,6.57-15.17,9.33v22.6c4.31-1.8,8.53-3.75,12.64-5.92.85-.45,1.7-.91,2.53-1.37Z"/><path class="cls-1" d="M183.88,135.64c-.14.03-.28.05-.41.08-4.9.92-9.83,1.85-14.76,2.82v19.72c5.03-1.3,10.1-2.52,15.17-3.7v-18.91Z"/><path class="cls-1" d="M183.88,127.5v-17.88c-1.84.37-3.69.74-5.54,1.11-3.2.63-6.41,1.26-9.63,1.89v17.77c4.44-.86,8.87-1.7,13.28-2.53.63-.12,1.26-.24,1.9-.36Z"/><path class="cls-1" d="M230.22,97.67c-4.97,1.72-10.04,3.27-15.17,4.69v18.82c5.12-1.18,10.19-2.44,15.17-3.83v-19.68Z"/><path class="cls-1" d="M230.22,125.62c-5.02,1.36-10.08,2.6-15.17,3.75v18.11c5.07-1.17,10.14-2.38,15.17-3.65v-18.2Z"/><path class="cls-1" d="M207.05,104.46c-5,1.25-10.06,2.4-15.17,3.5v18.03c5.1-.98,10.16-1.98,15.17-3.04v-18.48Z"/><path class="cls-1" d="M207.05,149.3v-18.19c-5.06,1.06-10.12,2.05-15.17,3.02v18.59c2.97-.67,5.94-1.34,8.9-2,2.09-.47,4.18-.94,6.27-1.41Z"/><path class="cls-1" d="M168.7,424.18c-2.79-2.69-5.45-5.44-8-8.25-8.53-9.39-15.71-19.39-21.48-29.97-12.18-22.33-17.8-47.23-16.24-72.01.56-8.85,2-17.57,4.24-26.07,5.91-22.46,17.45-43.39,33.48-61.18v-28.82c-9.1,6.22-17.86,12.97-25.97,20.33-18.96,17.22-34.3,37.79-41.75,62.7-11.46,38.31-2.34,82.85,27.06,132.49,12.83,6.98,26.44,12.71,40.66,17.05,2.65.81,5.31,1.56,8,2.27.46.12.93.25,1.39.37,3.89,1,7.82,1.88,11.78,2.67-4-3.21-7.8-6.53-11.41-9.93-.59-.55-1.18-1.1-1.76-1.65Z"/><path class="cls-1" d="M183.88,82.23c-5.01,1.13-10.07,2.17-15.17,3.17v19.07c5.11-.99,10.17-1.99,15.17-3.01v-19.22Z"/><path class="cls-1" d="M183.88,101.45s0,0,0,0h0s0,0,0,0Z"/><path class="cls-1" d="M253.4,145.66c-5,1.56-10.07,3-15.17,4.36v35.17c5.24-2.33,10.3-4.55,15.17-6.67v-32.86Z"/><path class="cls-1" d="M369.2,53.85c-1.71-1.48-3.44-2.94-5.2-4.37-2.18-1.78-4.39-3.51-6.63-5.21-.36,1.34-.73,2.67-1.12,3.98-14.51,49.5-44.74,74.32-80.64,89.39-4.65,1.95-9.4,3.74-14.22,5.4v32.01c32.77-14.2,58.7-25.51,76.89-43.1,16.19-15.65,25.56-35.76,29.45-63.81,5.67,15.43,11.88,34.48,12.79,46.02.7,8.84-.86,24.86-1.59,31.59-.23,2.17-.07,4.35.5,6.46.82,3.05,18.43,37.27,18.43,37.27,1.49,3.34.02,7.25-3.3,8.78l-9.22,4.25c-1.98.91-3.39,2.04-3.86,3.85-.11.44-.1,2.04.05,2.93.35,2.08,1.17,5.8,2.64,7.49,2.15,2.46-5.17,7.34-5.17,7.34,0,0-1.6,1.11-1.29,1.73,0,0,1.19,1.83,1.36,2.22.25.59.46,1.35.46,2.02.01,1.49-.43,2.26-.53,2.43-.75,1.34-2.57,3.04-3.89,3.77-.15.08-.57.31-.81.52-.93.81-3.19,3.12-3.06,6.33.08,2.06.28,5.85.83,9.42.67,4.36-.36,6.91-1.09,8.86-3.3,8.85-17.17,9.61-23.79,8.57-10.24-1.6-20.12-6.89-33.03-5.77-2.1.18-3.78,1.15-5.02,2.13-7.29,5.74-12.24,21.44-15.18,34.21-1.08,4.67-4.41,20.17-4.52,20.91-.26,1.78.59,3.25,2,4.22,43.04,29.89,57.04,69.41,58.89,75.13,57.21-39.73,94.68-105.89,94.68-180.82,0-66.34-29.36-125.82-75.8-166.15Z"/><path class="cls-1" d="M253.4,178.52v235.6c-5.23-2.29-10.29-4.79-15.17-7.49v-221.44c-2.63,1.17-5.29,2.37-8,3.6v213.15c-5.3-3.3-10.36-6.85-15.17-10.65v-195.43c-2.72,1.32-5.39,2.7-8,4.15v-42.51c-1.51.34-11.62,2.61-15.17,3.42v49.78c4.63-3.95,9.71-7.46,15.17-10.5v184.35c-3.53-3.18-6.91-6.51-10.12-9.99-1.74-1.89-3.42-3.81-5.05-5.77v-158.09c-2.84,2.42-5.5,5.01-8,7.76v139.84c-6.21-8.95-11.29-18.43-15.17-28.23-3.96-10-6.66-20.32-8-30.75-.41-3.16-.69-6.33-.85-9.51-.34-6.97-.04-13.79.85-20.4v-30.34c-17.39,21.88-28.01,47.97-29.73,75.39-.34,5.41-.36,11.73.27,18.72,1.81,19.96,8.98,45.37,29.46,70.62,2.47,3.04,5.13,6.08,8,9.11,0,0,0,0,.01.01,4.52,4.77,9.56,9.5,15.16,14.17,2.55,2.12,5.21,4.23,8,6.32,2.26,1.69,4.58,3.37,7,5.04,2.71.32,5.43.6,8.17.82,2.65.21,5.32.38,8,.5,3.3.15,6.61.23,9.95.23,1.75,0,3.49-.03,5.22-.07,2.68-.06,5.34-.18,8-.34,5.11-.3,10.17-.77,15.17-1.41,2.68-.35,5.35-.75,8-1.19,7.06-1.18,14-2.69,20.81-4.52,5.19-1.39,10.29-2.97,15.32-4.72-12.69-2.48-24.77-5.94-36.13-10.33v-242.36c-.26.11-.52.22-.78.34-2.35,1.02-4.77,2.07-7.22,3.13Z"/><path class="cls-1" d="M230.22,188.79v-36.71c-1.49.37-11.61,2.79-15.17,3.61v40.17c.52-.25,10.05-4.74,14.17-6.62.34-.15.67-.3,1-.45Z"/><path class="cls-1" d="M168.7,166.54v74.97c2.02-4.42,4.37-8.66,7.06-12.69,2.45-3.67,5.17-7.12,8.12-10.36v-55.69c-5.08,1.2-10.15,2.44-15.17,3.76Z"/><polygon class="cls-1" points="59.2 480 41.6 480 15.78 509.86 15.63 509.86 15.63 480 0 480 0 548 15.63 548 15.63 527.49 22.02 520.25 42.11 548 60.88 548 33.26 509.92 59.2 480"/><rect class="cls-1" x="70.61" y="480" width="15.63" height="68"/><polygon class="cls-1" points="98.38 492.97 119.36 492.97 119.36 548 134.99 548 134.99 492.97 155.97 492.97 155.97 480 98.38 480 98.38 492.97"/><polygon class="cls-1" points="214.25 507.03 183.74 507.03 183.74 480 168.11 480 168.11 548 183.74 548 183.74 520 214.25 520 214.25 548 229.88 548 229.88 480 214.25 480 214.25 507.03"/><path class="cls-1" d="M283.38,480h-17.9l-24.63,68h15.75l5.38-15.98h23.85l5.28,15.98h16.91l-24.52-67.67-.12-.33ZM274.04,494.92l8.35,25.3h-16.94l8.44-25.3h.15Z"/><path class="cls-1" d="M366.59,518.35c1.62-1.3,3-2.81,4.1-4.5,1.1-1.69,1.96-3.56,2.53-5.57.57-2,.87-4.12.87-6.29,0-3.4-.59-6.48-1.76-9.18-1.17-2.7-2.87-5.03-5.05-6.93-2.17-1.89-4.86-3.36-7.98-4.37-3.1-1-6.65-1.51-10.52-1.51h-29.86v68h15.63v-24.29h11.17l13.04,24.29h17.71l-14.87-26.72c1.84-.76,3.51-1.75,4.99-2.93ZM334.56,492.32h12.2c1.75,0,3.35.23,4.76.69,1.4.46,2.6,1.12,3.56,1.97.96.85,1.71,1.89,2.22,3.1.52,1.22.78,2.6.78,4.1,0,3.09-.97,5.51-2.89,7.2-1.93,1.7-4.72,2.57-8.29,2.57h-12.34v-19.64Z"/><path class="cls-1" d="M425.48,480.33l-.12-.33h-17.9l-24.63,68h15.75l5.38-15.98h23.85l5.28,15.98h16.91l-24.52-67.67ZM416.03,494.92l8.35,25.3h-16.94l8.44-25.3h.15Z"/></svg>