<svg xmlns="http://www.w3.org/2000/svg" viewBox="0 0 330 330" fill="currentColor"><path fill-rule="evenodd" clip-rule="evenodd" d="M 139.815 283.306 C 140.642 287.287 141.056 289.278 139.806 290.677 C 138.557 292.075 136.473 291.89 132.304 291.521 C 108.984 289.449 95.934 285.187 85.734 280.973 C 68.754 273.964 55.274 260.519 48.244 243.597 C 44.014 233.425 39.734 220.418 37.664 197.161 C 37.294 193.007 37.104 190.93 38.504 189.685 C 39.914 188.438 41.904 188.851 45.904 189.675 C 92.984 199.391 130.074 236.362 139.815 283.306 Z M 184.903 292.377 C 181.663 292.528 180.043 292.603 178.929 291.684 C 177.816 290.764 177.578 289.085 177.101 285.726 C 167.323 216.788 112.624 162.251 43.474 152.502 C 40.104 152.028 38.414 151.789 37.494 150.68 C 36.574 149.569 36.654 147.954 36.804 144.724 C 37.434 131.194 38.714 120.563 40.364 111.893 C 40.914 109.04 41.184 107.614 42.314 106.749 C 43.444 105.885 44.914 105.995 47.844 106.214 C 141.62 113.242 216.482 187.878 223.53 281.372 C 223.751 284.294 223.861 285.756 222.994 286.884 C 222.126 288.011 220.696 288.283 217.834 288.823 C 209.138 290.467 198.474 291.746 184.903 292.377 Z M 268.969 263.762 C 265.279 267.786 263.435 269.798 261.189 269.128 C 258.943 268.459 258.463 265.484 257.5 259.534 C 241.99 163.582 165.991 87.811 69.744 72.347 C 63.784 71.388 60.794 70.909 60.124 68.67 C 59.454 66.431 61.474 64.592 65.504 60.915 C 71.394 55.55 78.224 51.188 85.734 48.088 C 99.944 42.217 119.674 36.25 165.036 36.25 C 210.398 36.25 230.133 42.217 244.347 48.088 C 261.319 55.097 274.805 68.541 281.836 85.463 C 287.723 99.633 293.707 119.305 293.707 164.531 C 293.707 209.756 287.723 229.429 281.836 243.597 C 278.725 251.086 274.35 257.892 268.969 263.762 Z M 0.034 164.531 C 0.034 115.476 6.634 90.948 14.674 71.601 C 25.394 45.805 45.954 25.31 71.824 14.624 C 91.234 6.611 115.834 0.03 165.036 0.03 C 214.24 0.03 238.844 6.611 258.25 14.624 C 284.125 25.31 304.683 45.805 315.4 71.601 C 323.439 90.948 330.037 115.476 330.037 164.531 C 330.037 213.584 323.439 238.112 315.4 257.459 C 304.683 283.255 284.125 303.751 258.25 314.436 C 238.844 322.45 214.24 329.03 165.036 329.03 C 115.834 329.03 91.234 322.45 71.824 314.436 C 45.954 303.751 25.394 283.255 14.674 257.459 C 6.634 238.112 0.034 213.584 0.034 164.531 Z"/></svg>
